<svg width="16" height="16" viewBox="0 0 16 16" fill="none" xmlns="http://www.w3.org/2000/svg">
<path d="M9.81264 1.01573C9.82922 0.953535 9.8579 0.895214 9.89704 0.844107C9.93618 0.793 9.98501 0.750109 10.0407 0.717886C10.0965 0.685663 10.158 0.664741 10.2218 0.656315C10.2856 0.64789 10.3505 0.652126 10.4127 0.668782C11.5957 0.977382 12.6751 1.59581 13.5397 2.46035C14.4042 3.32489 15.0226 4.40428 15.3312 5.58734C15.3479 5.64952 15.3521 5.71437 15.3437 5.77819C15.3353 5.84201 15.3143 5.90354 15.2821 5.95927C15.2499 6.015 15.207 6.06382 15.1559 6.10296C15.1048 6.1421 15.0465 6.17078 14.9843 6.18737C14.943 6.19836 14.9004 6.20385 14.8577 6.20369C14.7498 6.20376 14.6449 6.16818 14.5593 6.10249C14.4737 6.0368 14.4121 5.94467 14.3842 5.84041C14.1193 4.8242 13.5882 3.89702 12.8456 3.15443C12.103 2.41184 11.1758 1.8807 10.1596 1.61576C10.0974 1.59918 10.0391 1.57049 9.98796 1.53136C9.93685 1.49222 9.89396 1.44339 9.86174 1.38766C9.82952 1.33194 9.80859 1.2704 9.80017 1.20659C9.79174 1.14277 9.79598 1.07791 9.81264 1.01573ZM9.5065 4.22811C10.6943 4.54485 11.4551 5.3057 11.7719 6.4935C11.7998 6.59775 11.8613 6.68988 11.9469 6.75558C12.0325 6.82127 12.1375 6.85684 12.2454 6.85678C12.2881 6.85693 12.3306 6.85144 12.3719 6.84045C12.4341 6.82387 12.4924 6.79519 12.5435 6.75605C12.5947 6.71691 12.6375 6.66808 12.6698 6.61236C12.702 6.55663 12.7229 6.4951 12.7313 6.43128C12.7398 6.36746 12.7355 6.30261 12.7189 6.24043C12.3107 4.71302 11.287 3.68931 9.75957 3.28113C9.69739 3.26451 9.63255 3.26031 9.56874 3.26875C9.50494 3.27719 9.44342 3.29812 9.3877 3.33034C9.27518 3.3954 9.19311 3.5025 9.15955 3.62808C9.12599 3.75366 9.14369 3.88742 9.20876 3.99995C9.27382 4.11248 9.38092 4.19455 9.5065 4.22811ZM15.9917 12.1468C15.8518 13.214 15.3281 14.1937 14.5184 14.9028C13.7088 15.6119 12.6686 16.002 11.5923 16C5.20021 16 8.14088e-06 10.7998 8.14088e-06 4.4077C-0.00205378 3.33178 0.387631 2.2919 1.09627 1.4823C1.80491 0.672702 2.78404 0.148762 3.85077 0.00834845C4.09633 -0.0214931 4.34494 0.0291402 4.55927 0.152644C4.7736 0.276148 4.94207 0.465854 5.03939 0.693273L6.7619 4.53832C6.83796 4.71239 6.86943 4.90267 6.85347 5.09196C6.8375 5.28125 6.77461 5.46357 6.67047 5.62245C6.65997 5.63862 6.64852 5.65415 6.63619 5.66898L4.91612 7.71477C4.90568 7.73598 4.90024 7.7593 4.90024 7.78294C4.90024 7.80658 4.90568 7.8299 4.91612 7.8511C5.54145 9.13115 6.88354 10.4635 8.18155 11.088C8.20323 11.0978 8.2269 11.1025 8.2507 11.1017C8.27451 11.1008 8.29779 11.0945 8.3187 11.0831L10.3343 9.36871C10.3487 9.35619 10.364 9.34473 10.38 9.33443C10.5382 9.22898 10.7201 9.16464 10.9094 9.14725C11.0987 9.12986 11.2894 9.15996 11.4641 9.23483L15.3206 10.9631C15.545 11.0625 15.7314 11.2316 15.8523 11.4452C15.9731 11.6588 16.022 11.9057 15.9917 12.1492V12.1468ZM15.021 12.026C15.0237 11.9918 15.0157 11.9577 14.9979 11.9284C14.9802 11.8991 14.9537 11.8761 14.9222 11.8627L11.0649 10.1345C11.0439 10.1263 11.0213 10.1228 10.9987 10.1243C10.9762 10.1257 10.9542 10.1319 10.9343 10.1426L8.91954 11.857C8.90485 11.8692 8.88933 11.8806 8.87382 11.8913C8.70948 12.0009 8.51954 12.066 8.32252 12.0803C8.12551 12.0946 7.92815 12.0576 7.7497 11.9729C6.25086 11.2488 4.75693 9.76873 4.03282 8.28377C3.94765 8.10636 3.90974 7.90996 3.92276 7.71359C3.93577 7.51722 3.99927 7.32754 4.10711 7.16291C4.11762 7.14654 4.12935 7.13099 4.14221 7.11638L5.86146 5.07059C5.87129 5.0492 5.87637 5.02595 5.87637 5.00242C5.87637 4.97889 5.87129 4.95564 5.86146 4.93425L4.14221 1.08594C4.13086 1.05506 4.11045 1.02832 4.08365 1.00924C4.05684 0.990152 4.0249 0.979613 3.992 0.978999H3.97322C3.14294 1.08944 2.38124 1.49832 1.83036 2.12927C1.27948 2.76022 0.977084 3.57011 0.979638 4.4077C0.979638 10.2594 5.74064 15.0204 11.5923 15.0204C12.43 15.0229 13.24 14.7204 13.871 14.1693C14.5019 13.6183 14.9107 12.8564 15.021 12.026Z" fill="black"/>
</svg>
