<svg width="19" height="15" viewBox="0 0 19 15" fill="none" xmlns="http://www.w3.org/2000/svg">
<path d="M16.1989 0H2.33144C1.71311 0 1.12009 0.245633 0.682864 0.682864C0.245634 1.12009 0 1.71311 0 2.33144V12.4686C0 13.0869 0.245634 13.6799 0.682864 14.1171C1.12009 14.5544 1.71311 14.8 2.33144 14.8H16.1989C16.8172 14.8 17.4102 14.5544 17.8475 14.1171C18.2847 13.6799 18.5303 13.0869 18.5303 12.4686V2.33144C18.5303 1.71311 18.2847 1.12009 17.8475 0.682864C17.4102 0.245633 16.8172 0 16.1989 0ZM2.33144 0.932577H16.1989C16.5519 0.931559 16.892 1.06501 17.1501 1.3058C17.4082 1.54659 17.5649 1.87665 17.5884 2.22886C15.2849 3.45986 12.9722 4.68154 10.6594 5.91254C10.3465 6.10862 10.0154 6.27414 9.67083 6.40681C9.4003 6.4602 9.12149 6.45537 8.85296 6.39266C8.58443 6.32995 8.33233 6.21079 8.11343 6.0431C6.78917 5.34367 5.4649 4.63491 4.14997 3.93548C3.08683 3.37593 2.00504 2.80706 0.941903 2.23819C0.963532 1.88447 1.11939 1.55237 1.37765 1.30971C1.63591 1.06705 1.97707 0.932154 2.33144 0.932577ZM17.5977 12.4686C17.5977 12.8396 17.4504 13.1954 17.188 13.4577C16.9257 13.72 16.5699 13.8674 16.1989 13.8674H2.33144C1.96044 13.8674 1.60463 13.72 1.3423 13.4577C1.07996 13.1954 0.932578 12.8396 0.932578 12.4686V3.29666C3.13346 4.45306 5.32502 5.6281 7.5259 6.79383C7.91912 7.03491 8.34244 7.22305 8.78488 7.35337C9.43245 7.45866 10.0961 7.3226 10.65 6.97101C12.0023 6.26226 13.3452 5.54417 14.6974 4.83541C15.6673 4.31317 16.6279 3.80958 17.5977 3.29666V12.4686Z" fill="black"/>
</svg>
