<svg width="19" height="19" viewBox="0 0 19 19" fill="none" xmlns="http://www.w3.org/2000/svg">
<path d="M14.4 10.9883L11.48 9.52832C11.4226 9.49969 11.3586 9.48671 11.2945 9.49072C11.2304 9.49472 11.1685 9.51556 11.115 9.55114L9.59663 10.564C8.76197 10.1637 8.08887 9.49063 7.68859 8.65597L8.70147 7.13757C8.73704 7.08412 8.75788 7.02222 8.76189 6.95814C8.76589 6.89405 8.75292 6.83004 8.72428 6.77257L7.26428 3.85257C7.23399 3.79162 7.18727 3.74036 7.12938 3.70456C7.0715 3.66876 7.00475 3.64987 6.93669 3.65C6.06546 3.65 5.22991 3.9961 4.61385 4.61215C3.99779 5.22821 3.6517 6.06376 3.6517 6.935C3.65387 8.96722 4.46213 10.9156 5.89912 12.3526C7.33612 13.7896 9.28448 14.5978 11.3167 14.6C12.1879 14.6 13.0235 14.2539 13.6395 13.6378C14.2556 13.0218 14.6017 12.1862 14.6017 11.315C14.6017 11.2472 14.5829 11.1807 14.5473 11.123C14.5117 11.0653 14.4607 11.0187 14.4 10.9883ZM11.3167 13.87C9.47801 13.8681 7.71519 13.1368 6.41504 11.8366C5.1149 10.5365 4.38363 8.77368 4.3817 6.935C4.38159 6.29552 4.62128 5.67925 5.05343 5.2079C5.48559 4.73655 6.07879 4.44439 6.71587 4.38912L7.97512 6.90854L6.97137 8.41781C6.93791 8.46761 6.91725 8.52488 6.9112 8.58457C6.90515 8.64425 6.91391 8.7045 6.93669 8.76C7.42164 9.9129 8.33879 10.8301 9.49169 11.315C9.54724 11.3381 9.60762 11.3471 9.66748 11.3412C9.72734 11.3353 9.78481 11.3147 9.83479 11.2812L11.3441 10.2775L13.8635 11.5367C13.808 12.1738 13.5156 12.7669 13.0441 13.1989C12.5726 13.6309 11.9562 13.8704 11.3167 13.87ZM9.12669 1.57649e-07C7.53811 -0.000295095 5.97697 0.414136 4.5977 1.2023C3.21842 1.99047 2.06881 3.12505 1.26256 4.49384C0.456315 5.86262 0.0213764 7.41817 0.000768056 9.00662C-0.0198403 10.5951 0.374595 12.1614 1.14506 13.5506L0.0591835 16.8073C-0.00515828 17.0003 -0.0144957 17.2073 0.0322177 17.4053C0.0789311 17.6032 0.179849 17.7842 0.323661 17.928C0.467473 18.0718 0.648495 18.1728 0.846438 18.2195C1.04438 18.2662 1.25142 18.2569 1.44436 18.1925L4.70107 17.1066C5.9193 17.7817 7.27589 18.1688 8.66689 18.2386C10.0579 18.3083 11.4464 18.0587 12.726 17.5088C14.0056 16.959 15.1424 16.1235 16.0493 15.0665C16.9561 14.0094 17.609 12.7588 17.9578 11.4105C18.3066 10.0621 18.3422 8.6518 18.0617 7.28758C17.7813 5.92336 17.1923 4.64144 16.3398 3.54003C15.4874 2.43862 14.3942 1.54696 13.1439 0.933347C11.8936 0.319736 10.5194 0.000467231 9.12669 1.57649e-07ZM9.12669 17.52C7.6507 17.5204 6.20067 17.1317 4.92281 16.3931C4.86727 16.3611 4.80438 16.3441 4.74031 16.3438C4.70089 16.3438 4.66173 16.3502 4.62442 16.3629L1.2135 17.4999C1.14918 17.5214 1.08017 17.5245 1.01419 17.5089C0.948208 17.4933 0.887867 17.4597 0.83993 17.4118C0.791993 17.3638 0.758353 17.3035 0.742782 17.2375C0.727211 17.1715 0.730324 17.1025 0.751771 17.0382L1.88875 13.6273C1.90515 13.5782 1.91094 13.5263 1.90575 13.4748C1.90056 13.4234 1.8845 13.3737 1.85863 13.3289C0.933087 11.729 0.561382 9.86847 0.801181 8.03581C1.04098 6.20316 1.87888 4.50086 3.18489 3.19301C4.4909 1.88516 6.19202 1.04487 8.02434 0.802496C9.85666 0.56012 11.7177 0.92921 13.3189 1.85251C14.92 2.7758 16.1717 4.20169 16.8798 5.90897C17.5878 7.61624 17.7127 9.50947 17.2349 11.2949C16.7572 13.0804 15.7036 14.6583 14.2375 15.7839C12.7715 16.9094 10.975 17.5197 9.12669 17.52Z" fill="black"/>
</svg>
